<?xml version="1.0" encoding="utf-8"?>
<!-- Generator: Adobe Illustrator 19.1.0, SVG Export Plug-In . SVG Version: 6.00 Build 0)  -->
<svg version="1.1" id="Layer_1" xmlns="http://www.w3.org/2000/svg" xmlns:xlink="http://www.w3.org/1999/xlink" x="0px" y="0px"
	 viewBox="-142 144.6 113.4 113.4" style="enable-background:new -142 144.6 113.4 113.4;" xml:space="preserve">
<style type="text/css">
	.st0{fill:#FFFFFF;}
</style>
<g>
	<circle class="st0" cx="-85.3" cy="201.3" r="56.7"/>
	<g>
		<path d="M-84.4,207.8c-0.3,0.3-0.6,0.3-1.1,0.3s-0.9-0.3-1.1-0.3l-18.7-18.7c0,0.3,0,0.6,0,0.6v23c0,1.7,1.4,2.8,2.8,2.8H-68
			c1.7,0,2.8-1.4,2.8-2.8v-23c0-0.3,0-0.9-0.3-1.1L-84.4,207.8z"/>
		<path d="M-85.6,204.7l17.9-17.9H-68h-34.6c-0.3,0-0.6,0-0.6,0L-85.6,204.7z"/>
	</g>
</g>
</svg>
