<?xml version="1.0" encoding="utf-8"?>
<!-- Generator: Adobe Illustrator 19.1.0, SVG Export Plug-In . SVG Version: 6.00 Build 0)  -->
<svg version="1.1" id="Layer_1" xmlns="http://www.w3.org/2000/svg" xmlns:xlink="http://www.w3.org/1999/xlink" x="0px" y="0px"
	 viewBox="-142 144.6 113.4 113.4" style="enable-background:new -142 144.6 113.4 113.4;" xml:space="preserve">
<style type="text/css">
	.st0{fill:#FFFFFF;}
</style>
<g>
	<circle class="st0" cx="-85.3" cy="201.3" r="56.7"/>
	<path d="M-107.4,197L-107.4,197c1.4,0.6,3.1,1.1,4.8,1.1c-2.8-2-4.8-5.1-4.8-9.1c0-2,0.6-3.7,1.4-5.4c5.4,6.5,13.3,10.8,22.1,11.3
		c-0.3-0.9-0.3-1.7-0.3-2.6c0-6,4.8-10.8,10.8-10.8c3.1,0,6,1.4,7.9,3.4c2.6-0.6,4.8-1.4,6.8-2.6c-0.9,2.6-2.6,4.5-4.8,6
		c2.3-0.3,4.3-0.9,6.2-1.7c-1.4,2.3-3.1,4-5.4,5.7c0,0.6,0,0.9,0,1.4c0,14.2-10.8,30.6-30.6,30.6c-6,0-11.6-1.7-16.4-4.8
		c0.9,0,1.7,0.3,2.6,0.3c5.1,0,9.6-1.7,13.3-4.5c-4.8,0-8.8-3.1-9.9-7.4c0.6,0,1.4,0.3,2,0.3c0.9,0,2,0,2.8-0.3
		C-103.7,206.7-107.4,202.4-107.4,197"/>
</g>
</svg>
